<svg id="Capa_1" enable-background="new 0 0 512 512" height="512" viewBox="0 0 512 512" width="512" xmlns="http://www.w3.org/2000/svg"><g><path d="m117 395h124v-124h-124zm30-94h64v64h-64z"/><path d="m117 241h124v-124h-124zm30-94h64v64h-64z"/><path d="m271 395h124v-124h-124zm30-94h64v64h-64z"/><path d="m271 241h124v-124h-124zm30-94h64v64h-64z"/><path d="m256 0c-141.159 0-256 114.841-256 256s114.841 256 256 256 256-114.841 256-256-114.841-256-256-256zm0 482c-124.617 0-226-101.383-226-226s101.383-226 226-226 226 101.383 226 226-101.383 226-226 226z"/></g></svg>